<svg width="139" height="24" viewBox="0 0 139 24" fill="none" xmlns="http://www.w3.org/2000/svg">
<path d="M99.539 2.181V4.179H94.409V21H91.952V4.179H86.795V2.181H99.539ZM121.652 2.316V21H119.195V7.068L112.985 21H111.257L105.02 7.041V21H102.563V2.316H105.209L112.121 17.76L119.033 2.316H121.652ZM131.786 21.189C130.544 21.189 129.428 20.973 128.438 20.541C127.466 20.091 126.701 19.479 126.143 18.705C125.585 17.913 125.297 17.004 125.279 15.978H127.898C127.988 16.86 128.348 17.607 128.978 18.219C129.626 18.813 130.562 19.11 131.786 19.11C132.956 19.11 133.874 18.822 134.54 18.246C135.224 17.652 135.566 16.896 135.566 15.978C135.566 15.258 135.368 14.673 134.972 14.223C134.576 13.773 134.081 13.431 133.487 13.197C132.893 12.963 132.092 12.711 131.084 12.441C129.842 12.117 128.843 11.793 128.087 11.469C127.349 11.145 126.71 10.641 126.17 9.957C125.648 9.255 125.387 8.319 125.387 7.149C125.387 6.123 125.648 5.214 126.17 4.422C126.692 3.63 127.421 3.018 128.357 2.586C129.311 2.154 130.4 1.938 131.624 1.938C133.388 1.938 134.828 2.379 135.944 3.261C137.078 4.143 137.717 5.313 137.861 6.771H135.161C135.071 6.051 134.693 5.421 134.027 4.881C133.361 4.323 132.479 4.044 131.381 4.044C130.355 4.044 129.518 4.314 128.87 4.854C128.222 5.376 127.898 6.114 127.898 7.068C127.898 7.752 128.087 8.31 128.465 8.742C128.861 9.174 129.338 9.507 129.896 9.741C130.472 9.957 131.273 10.209 132.299 10.497C133.541 10.839 134.54 11.181 135.296 11.523C136.052 11.847 136.7 12.36 137.24 13.062C137.78 13.746 138.05 14.682 138.05 15.87C138.05 16.788 137.807 17.652 137.321 18.462C136.835 19.272 136.115 19.929 135.161 20.433C134.207 20.937 133.082 21.189 131.786 21.189Z" fill="#00568D"/>
<path d="M50.8398 7.37476L43.4578 0H23.9814L39.9196 15.925L50.8398 7.37476Z" fill="#5CBAF7"/>
<path d="M39.92 15.925L23.9819 0L0 23.9608H7.47464L23.9819 7.46805L35.729 19.2056L39.92 15.925Z" fill="#45A9EA"/>
<path d="M80.9481 23.9606L63.4998 6.52771H44.0227L61.471 23.9606H80.9481Z" fill="#73C5FB"/>
<path d="M34.0486 23.9606L44.0222 13.9958L53.9958 23.9606H61.4705L44.0222 6.52771L26.574 23.9606H34.0486Z" fill="#45A9EA"/>
</svg>
